:SAMPLES-PER-SECOND 30
:FULLY-SPECIFIED
:DEGREES
53
root  16.3328 39.8742 2.70271 169.782 -87.9092 -168.709
RightUpLeg  -1.48976 -6.09729 -0.500774
RightLeg  4.05767 3.69456 0.398702
RightFoot  -4.51162 -0.0063253 -0.409287
RightToes  5.82063e-011 0 -3.6325e-017
Spine  0.185913 0.758432 9.4972
Spine1  7.21777 1.29758 -2.83109
HEad  -0.626926 2.11574 -17.7907
LeftShoulder1  -0.646151 5.30897 -29.6556
LeftArm  -16.9184 14.3446 -42.3179
LeftForeArm  21.1127 -13.317 -2.45489
LeftHand  -0.0554808 3.69005 2.6605
RightShoulder  -0.676795 -5.59484 25.65
RightArm  -4.27031 -3.84278 37.2888
RightForeArm  9.87523 4.26651 -0.182449
RightHand  -0.20112 3.21339 -2.95157
LeftUpLeg  -4.3435 8.1608 6.26243
LeftLeg  8.0632 -2.41512 -0.156065
LeftFoot  -4.10978 0.0674529 -0.675461
LeftToes  2.58842e-009 -1.78069e-010 3.24654e-012
54
root  16.252 39.8169 2.75196 -179.815 -88.5606 -179.381
RightUpLeg  -1.57288 -6.79354 -1.15221
RightLeg  5.27776 3.75987 0.69569
RightFoot  -5.37715 -0.0133324 -0.442954
RightToes  5.82063e-011 0 -3.6325e-017
Spine  0.629843 0.9672 10.8365
Spine1  7.45416 1.8122 -3.75022
HEad  0.0648169 1.08611 -20.1114
LeftShoulder1  -0.650904 5.3159 -29.752
LeftArm  -15.2448 16.6247 -44.6358
LeftForeArm  22.8371 -13.5093 -3.13411
LeftHand  -0.0397861 2.92709 0.983262
RightShoulder  -0.856306 -6.06523 26.8481
RightArm  -2.59812 -5.22662 39.1747
RightForeArm  9.86337 4.48552 0.51926
RightHand  -0.220853 3.11392 -3.24706
LeftUpLeg  -5.34799 7.84068 5.84714
LeftLeg  10.5849 -2.45864 -0.263676
LeftFoot  -4.58834 0.0961018 -1.16666
LeftToes  2.58842e-009 -1.78069e-010 3.24654e-012
55
root  16.1752 39.7583 2.80065 175.247 -89.4162 -174.954
RightUpLeg  -1.41023 -7.26555 -1.68846
RightLeg  6.55096 3.48792 0.686118
RightFoot  -6.24923 -0.0312726 -0.2484
RightToes  5.82063e-011 0 -3.6325e-017
Spine  1.48898 1.13559 12.1144
Spine1  7.51382 2.35107 -4.67419
HEad  0.938974 0.257522 -21.9552
LeftShoulder1  -0.680108 5.37333 -30.2158
LeftArm  -13.6337 17.9542 -45.6592
LeftForeArm  25.6829 -12.7136 -3.7694
LeftHand  0.010106 3.27499 -1.50933
RightShoulder  -0.92598 -6.22102 27.5109
RightArm  -0.943062 -6.62142 41.253
RightForeArm  10.2379 4.62223 1.22196
RightHand  -0.222405 3.09061 -3.27903
LeftUpLeg  -6.31781 8.08694 5.53165
LeftLeg  13.4256 -2.55359 -0.446985
LeftFoot  -4.82356 0.180093 -2.64343
LeftToes  2.58842e-009 -1.78069e-010 3.24654e-012
56
root  16.0971 39.7158 2.86903 -63.5829 -89.0334 63.1525
RightUpLeg  -0.850756 -8.11278 -2.62792
RightLeg  7.68255 3.27056 0.874786
RightFoot  -7.06716 -0.0469437 0.00525697
RightToes  5.82063e-011 0 -3.6325e-017
Spine  2.54561 1.2733 12.6168
Spine1  7.57598 2.75595 -4.95948
HEad  2.38629 -0.534469 -23.5325
LeftShoulder1  -0.676149 5.32505 -30.9682
LeftArm  -12.8691 18.5634 -46.0353
LeftForeArm  26.9427 -10.8629 -4.24523
LeftHand  0.0160382 3.33124 -2.0506
RightShoulder  -0.976141 -6.33285 27.9468
RightArm  1.32766 -7.56986 43.0716
RightForeArm  10.7932 4.9245 2.20636
RightHand  -0.242032 2.46874 -3.78183
LeftUpLeg  -7.27163 8.99669 5.05677
LeftLeg  16.4894 -3.15188 -0.73627
LeftFoot  -4.84925 0.293062 -4.66413
LeftToes  2.58842e-009 -1.78069e-010 3.24654e-012
57
root  16.0143 39.6953 2.92572 -40.1355 -87.9842 39.1142
RightUpLeg  -0.363816 -8.77829 -3.53209
RightLeg  8.63802 3.07029 0.935217
RightFoot  -7.69837 -0.0477406 0.0509036
RightToes  5.82063e-011 0 -3.6325e-017
Spine  3.33299 1.50577 13.097
Spine1  7.83836 3.39229 -5.87538
HEad  3.28072 -1.53625 -23.7915
LeftShoulder1  -0.641771 5.23232 -30.9708
LeftArm  -13.2595 19.0724 -46.4898
LeftForeArm  27.8582 -8.62992 -4.12629
LeftHand  0.0363507 3.28494 -3.15122
RightShoulder  -1.02427 -6.43013 28.4627
RightArm  4.15269 -7.5854 44.8701
RightForeArm  12.733 5.10601 3.40117
RightHand  -0.23038 1.78441 -3.88481
LeftUpLeg  -8.12524 10.1428 4.72167
LeftLeg  19.0874 -3.20642 -0.915104
LeftFoot  -5.32295 0.378061 -6.57224
LeftToes  2.58842e-009 -1.78069e-010 3.24654e-012
58
root  15.9248 39.6813 2.99574 -30.8118 -86.5643 29.1357
RightUpLeg  0.428757 -9.23962 -4.27655
RightLeg  9.26757 2.29774 0.801654
RightFoot  -8.20763 -0.065304 0.328262
RightToes  5.82063e-011 0 -3.6325e-017
Spine  4.55882 1.42691 13.0935
Spine1  7.45167 3.56567 -6.24259
HEad  4.31188 -2.07123 -23.6332
LeftShoulder1  -0.666687 5.29048 -31.1625
LeftArm  -12.949 19.711 -46.185
LeftForeArm  26.248 -6.65031 -4.06707
LeftHand  0.0040672 3.83126 -2.06252
RightShoulder  -1.01804 -6.40045 28.6045
RightArm  6.95937 -7.1411 46.5335
RightForeArm  15.7981 5.48323 4.57116
RightHand  -0.184578 1.66589 -3.20334
LeftUpLeg  -9.04302 11.0428 4.69728
LeftLeg  21.4887 -3.33611 -1.11641
LeftFoot  -6.0947 0.333971 -6.48459
LeftToes  2.58842e-009 -1.78069e-010 3.24654e-012
59
root  15.8199 39.68 3.11522 -26.8688 -84.9069 24.6153
RightUpLeg  1.42693 -9.95314 -5.32119
RightLeg  9.53346 1.59933 0.915455
RightFoot  -8.51451 -0.0681172 0.431464
RightToes  5.82063e-011 0 -3.6325e-017
Spine  5.30084 1.3973 12.8385
Spine1  7.62841 3.70297 -6.42794
HEad  4.21361 -2.68594 -22.6725
LeftShoulder1  -0.605664 5.11859 -31.3493
LeftArm  -13.4677 20.221 -45.6023
LeftForeArm  24.4747 -5.45776 -3.59667
LeftHand  -0.0441485 5.89333 -2.35191
RightShoulder  -0.969523 -6.276 28.4004
RightArm  8.80785 -6.42619 48.0626
RightForeArm  17.8769 6.27896 5.36984
RightHand  -0.164672 2.02629 -2.74999
LeftUpLeg  -9.68621 10.8253 4.66143
LeftLeg  22.7799 -2.11816 -0.651702
LeftFoot  -6.18243 0.317144 -6.21407
LeftToes  2.58842e-009 -1.78069e-010 3.24654e-012
